<?xml version="1.0" encoding="UTF-8" standalone="no"?>
<svg width="17px" height="18px" viewBox="0 0 17 18" version="1.1" xmlns="http://www.w3.org/2000/svg" xmlns:xlink="http://www.w3.org/1999/xlink" xmlns:sketch="http://www.bohemiancoding.com/sketch/ns">
    <!-- Generator: Sketch 3.3.3 (12072) - http://www.bohemiancoding.com/sketch -->
    <title>bell</title>
    <desc>Created with Sketch.</desc>
    <defs></defs>
    <g id="little-big-details" stroke="none" stroke-width="1" fill="none" fill-rule="evenodd" sketch:type="MSPage">
        <g id="bell" sketch:type="MSLayerGroup" fill="#000000">
            <path d="M16.2066064,13.40848 C12.9115,8.4872 15.2300106,7.13392 13.0874681,4.92368 C12.7225106,4.54688 11.158617,3.93952 10.0069574,3.49008 C9.95035106,2.84416 11.1870117,-3.43074893e-16 8.48191489,0 C5.77681807,3.51513708e-16 6.96898936,2.82352 6.91256383,3.46944 C5.86615957,3.81104 4.24819149,4.45504 3.84941489,4.92368 C1.96530851,7.13392 4.00567021,8.73376 0.719244681,13.42528 C0.295510638,14.04336 0,14.4928 0,14.76624 C0,16.212 3.25893617,17.00352 6.13519149,17.23056 C6.61209574,17.62 7.41001064,18 8.48191489,18 C9.55381915,18 10.3095957,17.62592 10.8248404,17.21856 C13.672883,16.97504 16.9638298,16.18464 16.9638298,14.76624 C16.9638298,14.4928 16.6683191,14.06656 16.2066064,13.40848 Z M11.3881915,14.43408 C11.2849255,14.08272 10.0104681,13.78928 8.48191489,13.78928 C7.09008511,13.78928 5.661,14.03616 5.58648936,14.43408 C5.50112766,14.88928 5.50094681,15.2728 5.53548936,15.62416 C3.5951383,15.40928 2.10130851,14.94656 2.10130851,14.26928 C2.10130851,13.284 4.5645,12.37776 8.48191489,12.37776 C12.4049362,12.37776 14.8420851,13.24464 14.8420851,14.26928 C14.8420851,14.9568 13.331617,15.40288 11.437383,15.61552 C11.4489574,15.27248 11.5176809,14.87456 11.3881915,14.43408 Z" id="Shape" sketch:type="MSShapeGroup"></path>
        </g>
    </g>
</svg>