<?xml version="1.0" encoding="UTF-8" standalone="no"?>
<svg width="18px" height="15px" viewBox="0 0 18 15" version="1.1" xmlns="http://www.w3.org/2000/svg" xmlns:xlink="http://www.w3.org/1999/xlink" xmlns:sketch="http://www.bohemiancoding.com/sketch/ns">
    <!-- Generator: Sketch 3.3.3 (12072) - http://www.bohemiancoding.com/sketch -->
    <title>folder</title>
    <desc>Created with Sketch.</desc>
    <defs></defs>
    <g id="little-big-details" stroke="none" stroke-width="1" fill="none" fill-rule="evenodd" sketch:type="MSPage">
        <g id="folder" sketch:type="MSLayerGroup" fill="#000000">
            <path d="M1.06666458,14.962383 L1.05882353,14.9831189 L14.6384707,14.9831189 L18,6.09440613 L4.41999503,6.09440613 L1.80284882,13.015523 C1.80091604,9.70083803 1.79799088,3.29031772 1.80408433,3.01713296 C1.81231844,2.64797689 1.80634622,2.31250688 2.09224925,2.00272746 C2.37815229,1.69294805 2.62133789,1.74310407 2.86853027,1.74310407 C3.40382295,1.74310407 5.39725489,1.71966706 5.72840107,1.74310407 C6.05954724,1.76654108 6.50331058,1.88613637 6.65205522,2.71500061 C6.72096946,3.09901814 6.83209783,4.28690699 8.7748449,4.28690699 C9.24454274,4.28690699 11.8634582,4.28690699 12.2116801,4.28690699 C12.5599021,4.28690699 12.7516391,4.37699952 12.891424,4.63233325 C13.0312089,4.88766699 12.9809616,5.25692921 12.9809616,5.25692921 L14.9935414,5.25692921 C14.9935414,5.25692921 14.9344306,3.95714811 14.4941628,3.23441539 C14.3042985,2.9227389 13.8078835,2.4842541 12.7918029,2.48425412 C12.4833319,2.48425413 9.13512946,2.48425412 8.77484478,2.48425412 C8.08177601,2.48425412 8.21244673,0.71676551 7.47210138,0.331336898 C7.00466494,0.0879864405 6.66514677,0.0889453413 6.2715131,0.0889453413 C5.87787942,0.0889453413 2.85877185,0.0889453413 2.24224494,0.0889453413 C1.99052878,0.0889453413 1.49640252,0.230966071 0.987153895,0.670293206 C0.477905273,1.10962034 0.276403091,1.82608939 0.276403091,2.30247568 C0.276403091,2.77886196 0.0791015625,14.962383 0.0791015625,14.962383 L1.06666458,14.962383 Z" sketch:type="MSShapeGroup"></path>
        </g>
    </g>
</svg>