<?xml version="1.0" encoding="UTF-8" standalone="no"?>
<svg width="386px" height="121px" viewBox="0 0 386 121" version="1.1" xmlns="http://www.w3.org/2000/svg" xmlns:xlink="http://www.w3.org/1999/xlink" xmlns:sketch="http://www.bohemiancoding.com/sketch/ns">
    <!-- Generator: Sketch 3.3.3 (12072) - http://www.bohemiancoding.com/sketch -->
    <title>hello, copy 4</title>
    <desc>Created with Sketch.</desc>
    <defs>
        <linearGradient x1="50%" y1="0%" x2="50%" y2="159.52381%" id="linearGradient-1">
            <stop stop-color="#FF7F3E" offset="0%"></stop>
            <stop stop-color="#FF5DF3" offset="100%"></stop>
        </linearGradient>
    </defs>
    <g id="Page-1" stroke="none" stroke-width="1" fill="none" fill-rule="evenodd" sketch:type="MSPage">
        <path d="M54.4532025,118.526097 L54.4532025,71.4508221 C54.4532025,59.8723794 51.016499,54.0832448 44.1429888,54.0832448 C39.2551594,54.0832448 35.652985,56.1272156 33.3363575,60.2152184 C31.01973,64.3032212 29.8614336,71.0952979 29.8614336,80.5916522 L29.8614336,118.526097 L0,118.526097 L0,0 L29.8614336,0 L29.8614336,16.8343621 C29.8614336,24.4517586 29.4541206,33.1354604 28.6394824,42.885728 L30.0141775,42.885728 C32.8654114,38.4168553 36.2512008,35.2683787 40.1716473,33.4402035 C44.0920938,31.6120283 48.6489081,30.6979545 53.8422269,30.6979545 C63.5160559,30.6979545 71.0386181,33.4782625 76.410139,39.0389619 C81.7816599,44.5996614 84.46738,52.3819848 84.46738,62.3861655 L84.46738,118.526097 L54.4532025,118.526097 Z M146.557778,120.049569 C132.148864,120.049569 120.960485,116.228232 112.992304,108.585444 C105.024124,100.942657 101.040094,90.0626384 101.040094,75.9450635 C101.040094,61.3704449 104.731368,50.1857354 112.114027,42.3905997 C119.496686,34.5954639 130.03591,30.6979545 143.732016,30.6979545 C156.766227,30.6979545 166.834496,34.0876451 173.937123,40.867128 C181.03975,47.6466109 184.59101,57.4094276 184.59101,70.1558711 L184.59101,83.4100748 L131.207015,83.4100748 C131.410675,88.2344259 133.179941,92.0176761 136.514866,94.7599389 C139.849791,97.5022016 144.393877,98.8733124 150.14726,98.8733124 C155.391493,98.8733124 160.215607,98.3781891 164.619745,97.3879275 C169.023883,96.397666 173.797082,94.7091684 178.939486,92.3223842 L178.939486,113.727161 C174.255316,116.113946 169.418474,117.764357 164.428815,118.678444 C159.439156,119.592532 153.482203,120.049569 146.557778,120.049569 L146.557778,120.049569 Z M144.801223,50.9601279 C141.288095,50.9601279 138.347805,52.0646338 135.980262,54.2736788 C133.61272,56.4827238 132.22531,59.9485872 131.817991,64.6713731 L157.478967,64.6713731 C157.377137,60.5071963 156.193384,57.180983 153.927671,54.6926335 C151.661959,52.204284 148.61984,50.9601279 144.801223,50.9601279 L144.801223,50.9601279 Z M231.330646,118.526097 L201.469212,118.526097 L201.469212,0 L231.330646,0 L231.330646,118.526097 Z M281.888879,118.526097 L252.027445,118.526097 L252.027445,0 L281.888879,0 L281.888879,118.526097 Z M385.220131,75.1833277 C385.220131,89.3009026 381.4143,100.307875 373.802524,108.204576 C366.190748,116.101278 355.536967,120.049569 341.840862,120.049569 C328.70482,120.049569 318.254696,116.012409 310.490175,107.937969 C302.725654,99.8635286 298.843452,88.9454241 298.843452,75.1833277 C298.843452,61.1165355 302.649283,50.1857354 310.261059,42.3905997 C317.872835,34.5954639 328.552073,30.6979545 342.299093,30.6979545 C350.80188,30.6979545 358.311714,32.5007113 364.828819,36.106279 C371.345925,39.7118466 376.373695,44.8789031 379.91228,51.6076034 C383.450865,58.3363036 385.220131,66.1947998 385.220131,75.1833277 L385.220131,75.1833277 Z M329.163117,75.1833277 C329.163117,82.5975936 330.155943,88.247078 332.141624,92.1319502 C334.127304,96.0168224 337.46218,97.9592294 342.146349,97.9592294 C346.779604,97.9592294 350.050837,96.0168224 351.960145,92.1319502 C353.869454,88.247078 354.824094,82.5975936 354.824094,75.1833277 C354.824094,67.8198444 353.856725,62.2592283 351.921959,58.5013127 C349.987194,54.7433971 346.677775,52.8644675 341.993606,52.8644675 C337.411265,52.8644675 334.127304,54.7307016 332.141624,58.4632259 C330.155943,62.1957502 329.163117,67.7690618 329.163117,75.1833277 L329.163117,75.1833277 Z" id="hello,-copy-4" fill="url(#linearGradient-1)" sketch:type="MSShapeGroup"></path>
    </g>
</svg>