<?xml version="1.0" encoding="UTF-8" standalone="no"?>
<svg width="20px" height="11px" viewBox="0 0 20 11" version="1.1" xmlns="http://www.w3.org/2000/svg" xmlns:xlink="http://www.w3.org/1999/xlink" xmlns:sketch="http://www.bohemiancoding.com/sketch/ns">
    <!-- Generator: Sketch 3.3.3 (12072) - http://www.bohemiancoding.com/sketch -->
    <title>link2</title>
    <desc>Created with Sketch.</desc>
    <defs></defs>
    <g id="carousel-titles" stroke="none" stroke-width="1" fill="none" fill-rule="evenodd" sketch:type="MSPage">
        <g id="desktop" sketch:type="MSArtboardGroup" transform="translate(-845.000000, -177.000000)" fill="#CCCCCC">
            <g id="link2" sketch:type="MSLayerGroup" transform="translate(845.000000, 177.000000)">
                <path d="M19.9082627,5.17435074 C19.9082627,2.37126734 17.8220759,0.168218991 15.338321,0.168218991 L12.3811477,0.168218991 C13.5284609,0.813804135 14.0092454,1.77167029 14.3500749,2.68792817 L15.2095146,2.68792817 C16.4286966,2.68792817 17.4131602,3.84157218 17.4131602,5.16186826 C17.4131602,6.50712929 16.4286966,7.68157744 15.2095146,7.68157744 L11.2262694,7.68157744 C10.7757454,7.68157744 10.3895251,7.54405116 10.0260002,7.30666503 C9.14764764,6.57786335 8.79547047,5.34078381 9.18925591,4.29137947 L6.61830286,4.24561037 C6.16021374,6.72765312 7.56115818,9.28502873 9.87469739,9.99302628 C10.24957,10.1222309 10.6773985,10.168 11.1052271,10.168 L15.3496687,10.168 C17.8334236,10.168 19.9082627,7.97721514 19.9082627,5.17435074 L19.9082627,5.17435074 Z M10.3464393,0.355456202 C9.96021904,0.213769096 9.53239047,0.168 9.11590962,0.180482481 L4.71240098,0.168 C2.22864613,0.168 0.150024414,2.35878486 0.150024414,5.16164926 C0.150024414,7.96451367 2.23999383,10.167781 4.72394778,10.167781 L7.68112112,10.167781 C6.53380794,9.52219587 6.05302339,8.56849054 5.70841137,7.64807183 L4.85275424,7.64807183 C3.63357223,7.64807183 2.64532606,6.49442782 2.64532606,5.17413174 C2.64532606,3.83303153 3.63357223,2.65442256 4.85275424,2.65442256 L8.98730224,2.65442256 C9.43782622,2.65442256 9.82026395,2.79610967 10.1875714,3.02933497 C11.0659239,3.76229748 11.4181011,4.99937701 11.0205331,6.04462053 L13.6028339,6.10287211 C14.0531588,3.60834688 12.6486308,1.05097127 10.3464393,0.355456202 L10.3464393,0.355456202 Z" id="Shape" sketch:type="MSShapeGroup"></path>
            </g>
        </g>
    </g>
</svg>