<?xml version="1.0" encoding="UTF-8" standalone="no"?>
<svg width="432px" height="84px" viewBox="0 0 432 84" version="1.1" xmlns="http://www.w3.org/2000/svg" xmlns:xlink="http://www.w3.org/1999/xlink" xmlns:sketch="http://www.bohemiancoding.com/sketch/ns">
    <!-- Generator: Sketch 3.3.3 (12072) - http://www.bohemiancoding.com/sketch -->
    <title>illo copy</title>
    <desc>Created with Sketch.</desc>
    <defs></defs>
    <g id="Page-1" stroke="none" stroke-width="1" fill="none" fill-rule="evenodd" sketch:type="MSPage">
        <g id="illo-copy" sketch:type="MSLayerGroup">
            <g id="comp" transform="translate(180.000000, 12.000000)" fill="#FFFFFF" sketch:type="MSShapeGroup">
                <path d="M19.18,58.4552 L4.4144,53.0928 L4.4144,50.6456 L19.18,56.008 L19.18,58.4552 Z" id="Shape"></path>
                <path d="M44.1232,12.8784 C31.1504,8.1672 31.1504,8.1672 19.3456,19.9456 C7.5408,31.7256 7.5408,31.7256 20.5128,36.4368 C33.4856,41.1488 33.4856,41.1488 45.2904,29.3696 C57.096,17.5904 57.096,17.5904 44.1232,12.8784 L44.1232,12.8784 Z M33.8232,14.236 C33.7664,14.2808 28.0688,18.7544 24.4616,22.3536 C20.8616,25.9456 16.9528,31.0536 16.9136,31.104 C16.672,31.4208 16.3064,31.5872 15.936,31.5872 C15.6776,31.5872 15.416,31.5056 15.1936,31.3376 C14.6544,30.9272 14.5504,30.1592 14.9608,29.6216 C15.124,29.4072 19.0072,24.3336 22.7256,20.6224 C26.4384,16.9184 32.0696,12.4968 32.3072,12.3096 C32.84,11.8928 33.6112,11.9848 34.0296,12.5168 C34.4496,13.0488 34.356,13.8176 33.8232,14.236 L33.8232,14.236 Z" id="Shape"></path>
                <path d="M72,12.2616 L38.2168,0 L30.1912,2.916 L0.0032,33.02 L0.0032,41.7272 L4.4224,43.3328 L0,44.9392 L0,59.7288 L33.788,72 L71.9992,58.1184 L71.9992,43.3296 L67.584,41.7264 L72,40.1232 L72,12.2616 L72,12.2616 Z M38.2168,2.6048 L67.184,13.1184 L63.4136,14.4872 L34.4528,3.972 L38.2168,2.6048 L38.2168,2.6048 Z M31.1816,5.3888 L61.184,16.2832 L33.4712,43.936 L3.4592,33.0344 L31.1816,5.3888 L31.1816,5.3888 Z M2.456,35.2752 L32.5592,46.2096 L32.5592,50.9472 L2.456,40.0136 L2.456,35.2752 L2.456,35.2752 Z M32.5616,68.9496 L2.4528,58.0144 L2.4528,47.5448 L32.5616,58.48 L32.5616,68.9496 L32.5616,68.9496 Z M67.1856,44.1872 L33.788,56.3192 L4.812,45.7968 L8.008,44.6352 L33.7856,53.9984 L63.9976,43.0288 L67.1856,44.1872 L67.1856,44.1872 Z" id="Shape"></path>
            </g>
            <path d="M155.60216,0.000712871287 C155.3048,0.0242376238 155.00528,0.000712871287 154.70144,0.000712871287 L122.29928,0.000712871287 C118.82744,0.000712871287 116.00072,2.79730693 116.00072,6.23833663 L116.00072,30.2970297 L104.30144,30.2970297 C100.82528,30.2970297 98.00072,33.0957624 98.00072,36.5353663 L98.00072,72 L107.00144,72 L110.6,72 L128.6,72 L128.6,62.3762376 L139.40216,62.3762376 L139.40216,72 L150.2,72 L152.00144,72 L169.99856,72 L169.99856,6.23762376 C169.99856,2.7980198 167.17616,0.000712871287 163.7,0.000712871287 L155.60216,0.000712871287 Z M119.6036,6.23762376 C119.6036,4.76340594 120.81248,3.56435644 122.29928,3.56435644 L154.70144,3.56435644 C156.18824,3.56435644 157.39928,4.76340594 157.39928,6.23762376 L157.39928,30.2970297 L145.70072,30.2970297 C142.22672,30.2970297 139.40216,33.0957624 139.40216,36.5353663 L139.40216,43.6633663 L128.6,43.6633663 L128.6,30.2977426 L119.6036,30.2970297 L119.6036,6.23762376 L119.6036,6.23762376 Z M139.40216,51.6831683 L108.80072,51.6831683 L108.80072,49.901703 C108.80072,49.8011881 108.8072,49.7056634 108.818,49.6094257 C108.82232,49.5759208 108.83096,49.5431287 108.83528,49.5089109 C108.84392,49.4461782 108.854,49.3855842 108.8684,49.3228515 C108.87704,49.2829307 108.88784,49.2458614 108.89504,49.2102178 C108.91016,49.1517624 108.92456,49.098297 108.94328,49.0476832 C108.96056,49.0077624 108.97064,48.9728317 108.98576,48.9364752 C109.0088,48.8808713 109.03184,48.8266931 109.05776,48.7732277 C109.07288,48.7418614 109.08512,48.710495 109.10168,48.6791287 C109.13768,48.6121188 109.17584,48.5472475 109.21472,48.4816634 C109.22624,48.4666931 109.23416,48.4538614 109.24208,48.4374653 C109.41056,48.1858218 109.6244,47.9584158 109.87928,47.7673663 L109.99304,47.6875248 C110.42072,47.398099 110.93984,47.2305743 111.49928,47.2305743 L139.4,47.2305743 L139.4,51.6831683 L139.40216,51.6831683 L139.40216,51.6831683 Z M125.00144,43.6633663 L111.50144,43.6633663 C111.19544,43.6633663 110.89592,43.6861782 110.60072,43.7303762 L110.60072,36.5353663 C110.60072,35.5765545 110.38112,34.6733465 109.9916,33.862099 L125.00144,33.862099 L125.00144,43.6633663 L125.00144,43.6633663 Z M107.00144,67.7227723 L101.6,67.7227723 L101.6,36.5353663 C101.6,35.0604356 102.8132,33.862099 104.30216,33.862099 C105.78896,33.862099 107.00216,35.0611485 107.00216,36.5353663 L107.00216,45.5396436 C106.96904,45.5688713 106.94096,45.6059406 106.91144,45.6394455 C106.88264,45.6629703 106.85456,45.6957624 106.8272,45.7271287 C105.92864,46.6987723 105.37352,47.9263366 105.23456,49.248 L105.23456,49.2665347 C105.22592,49.3563564 105.21728,49.4461782 105.21296,49.536 C105.21008,49.552396 105.20792,49.569505 105.20792,49.585901 C105.20144,49.6885545 105.19928,49.7926337 105.19928,49.8974257 L105.19928,49.901703 L105.19928,49.9038416 L105.19928,51.6853069 L105.19928,55.2503762 L105.19928,62.3783762 L107.00072,62.3783762 L107.00072,67.7227723 L107.00144,67.7227723 L107.00144,67.7227723 Z M125.00144,67.7227723 L110.6,67.7227723 L110.6,62.3762376 L125.00072,62.3762376 L125.00072,67.7227723 L125.00144,67.7227723 Z M128.6,58.8111683 L110.6,58.8111683 L108.80072,58.8111683 L108.80072,55.2482376 L139.40144,55.2482376 L139.40144,58.8111683 L128.6,58.8111683 L128.6,58.8111683 Z M143.00072,62.3762376 L143.00072,55.2482376 L143.00072,51.6831683 L143.00072,43.6633663 L143.00072,36.5353663 C143.00072,35.0604356 144.21176,33.862099 145.70072,33.862099 C147.18968,33.862099 148.40072,35.0611485 148.40072,36.5353663 L148.40072,67.7227723 L143.00072,67.7227723 L143.00072,62.3762376 Z" id="chair" fill="#FFFFFF" sketch:type="MSShapeGroup"></path>
            <path d="M323.56,17.6 L323.56,17.6 L323.2,17.6 L322.84,17.6 L306.37,17.6 L306.37,13.4857143 C306.37,10.8342857 304.21,8.64 301.6,8.64 L290.71,8.64 C288.1,8.64 285.94,10.8342857 285.94,13.4857143 L285.94,17.5085714 L273.07,17.5085714 C266.95,17.5085714 262,22.6285714 262,28.8457143 L262,72 L334,72 L334,28.8457143 C334,22.8114286 329.32,17.8742857 323.56,17.6 L323.56,17.6 Z M288.28,13.4857143 C288.28,12.1142857 289.36,11.0171429 290.71,11.0171429 L301.6,11.0171429 C302.95,11.0171429 304.03,12.1142857 304.03,13.4857143 L304.03,17.5085714 L288.28,17.5085714 L288.28,13.4857143 L288.28,13.4857143 Z M273.07,19.9771429 L316.63,19.9771429 C314.02,22.08 312.4,25.1885714 312.4,28.8457143 L312.4,52.6171429 L294.13,52.6171429 L294.13,50.6057143 C294.13,49.0514286 292.87,47.7714286 291.34,47.7714286 L285.58,47.7714286 C284.05,47.7714286 282.79,49.0514286 282.79,50.6057143 L282.79,52.6171429 L264.43,52.6171429 L264.43,28.8457143 C264.43,23.9085714 268.3,19.9771429 273.07,19.9771429 L273.07,19.9771429 Z M291.7,50.5142857 L291.7,57.0057143 C291.7,57.1885714 291.52,57.3714286 291.34,57.3714286 L285.58,57.3714286 C285.4,57.3714286 285.22,57.1885714 285.22,57.0057143 L285.22,50.5142857 C285.22,50.3314286 285.4,50.1485714 285.58,50.1485714 L291.34,50.1485714 C291.52,50.1485714 291.7,50.3314286 291.7,50.5142857 L291.7,50.5142857 Z M264.43,54.9942857 L282.79,54.9942857 L282.79,57.0057143 C282.79,58.56 284.05,59.84 285.58,59.84 L291.34,59.84 C292.87,59.84 294.13,58.56 294.13,57.0057143 L294.13,54.9942857 L312.4,54.9942857 L312.4,69.5314286 L264.43,69.5314286 L264.43,54.9942857 L264.43,54.9942857 Z" id="briefcase" fill="#FFFFFF" sketch:type="MSShapeGroup"></path>
            <path d="M352,68 L432,68" id="right-line" stroke="#FFFFFF" stroke-width="4" sketch:type="MSShapeGroup"></path>
            <path d="M0,68 L80,68" id="left-line" stroke="#FFFFFF" stroke-width="4" sketch:type="MSShapeGroup"></path>
        </g>
    </g>
</svg>