<?xml version="1.0" encoding="UTF-8" standalone="no"?>
<svg width="15px" height="15px" viewBox="0 0 15 15" version="1.1" xmlns="http://www.w3.org/2000/svg" xmlns:xlink="http://www.w3.org/1999/xlink" xmlns:sketch="http://www.bohemiancoding.com/sketch/ns">
    <!-- Generator: Sketch 3.3.3 (12072) - http://www.bohemiancoding.com/sketch -->
    <title>Link</title>
    <desc>Created with Sketch.</desc>
    <defs></defs>
    <g id="carousel-titles" stroke="none" stroke-width="1" fill="none" fill-rule="evenodd" sketch:type="MSPage">
        <g id="desktop" sketch:type="MSArtboardGroup" transform="translate(-690.000000, -174.000000)" fill="#000000">
            <g id="Captions" sketch:type="MSLayerGroup" transform="translate(504.000000, 171.000000)">
                <g id="Link" transform="translate(193.485281, 10.485281) rotate(-45.000000) translate(-193.485281, -10.485281) translate(185.485281, 6.485281)" sketch:type="MSShapeGroup">
                    <path d="M11.91328,0.146923077 L9.49136,0.146923077 C9.28224,0.146923077 9.0768,0.162307692 8.87616,0.192 C8.83248,0.198461538 8.7896,0.207538462 8.7464,0.215230769 C9.48976,0.625384615 10.10144,1.23138462 10.50432,1.96030769 L10.7024,1.96030769 L12.03776,1.96030769 C13.20928,1.96030769 14.15888,2.87369231 14.15888,4.00015385 C14.15888,5.12646154 13.20912,6.03984615 12.03776,6.03984615 L10.5152,6.03984615 L10.20192,6.03984615 L9.89712,6.03984615 L9.89616,6.03984615 L9.3888,6.03984615 C8.86,6.03984615 8.37696,5.85338462 8.00544,5.54569231 L8.00496,5.54615385 C8.00496,5.54584615 8.0048,5.54584615 8.00464,5.54569231 C7.9256,5.482 7.86288,5.42230769 7.81168,5.36907692 C7.69968,5.25153846 7.64992,5.16861538 7.64992,5.16861538 C7.65008,5.16830769 7.65024,5.16830769 7.65024,5.16815385 C7.65008,5.168 7.64992,5.16784615 7.64992,5.16769231 C7.40912,4.83692308 7.26768,4.43446154 7.26768,4.00015385 C7.26768,3.57769231 7.40112,3.18538462 7.62976,2.85969231 C7.63632,2.85046154 7.64352,2.84169231 7.65008,2.83261538 C7.37232,2.606 7.0136,2.46846154 6.62144,2.46846154 L5.81488,2.46846154 C5.60288,2.938 5.48416,3.45553846 5.48416,4.00015385 C5.48416,4.54446154 5.60208,5.06215385 5.81392,5.53169231 C5.85296,5.618 5.89536,5.70261538 5.94064,5.78569231 C5.97856,5.85492308 6.01776,5.92353846 6.06,5.99061538 C6.0632,5.99569231 6.06576,5.99969231 6.06864,6.00415385 C6.07616,6.01630769 6.08448,6.02753846 6.09216,6.03969231 C6.53888,6.72630769 7.20384,7.26738462 7.99424,7.574 C8.09152,7.61169231 8.1904,7.64661538 8.2912,7.67692308 C8.29664,7.67861538 8.30208,7.68030769 8.30768,7.68169231 C8.32448,7.68692308 8.3416,7.69107692 8.35856,7.69569231 C8.40176,7.708 8.44512,7.72046154 8.48896,7.73138462 C8.4896,7.73138462 8.48992,7.73169231 8.49056,7.73184615 C8.81056,7.81076923 9.14592,7.85292308 9.4912,7.85292308 L11.91312,7.85292308 C14.12624,7.85292308 15.92016,6.12784615 15.92016,4 C15.92032,1.87215385 14.1264,0.146923077 11.91328,0.146923077 L11.91328,0.146923077 Z" id="Shape"></path>
                    <path d="M4.08672,7.85307692 L6.50864,7.85307692 C6.71792,7.85307692 6.92336,7.83753846 7.124,7.80784615 C7.16768,7.80138462 7.21072,7.79246154 7.25376,7.78461538 C6.5104,7.37461538 5.89856,6.76861538 5.49584,6.03969231 L5.2976,6.03969231 L3.96224,6.03969231 C2.79072,6.03969231 1.84112,5.12646154 1.84112,3.99984615 C1.84112,2.87338462 2.79072,1.96030769 3.96224,1.96030769 L5.4848,1.96030769 L5.79792,1.96030769 L6.10272,1.96030769 L6.10384,1.96030769 L6.61104,1.96030769 C7.13968,1.96030769 7.62272,2.14676923 7.99424,2.45446154 L7.99456,2.454 C7.99472,2.45415385 7.99472,2.45430769 7.99488,2.45446154 C8.07408,2.518 8.1368,2.57769231 8.18784,2.63107692 C8.3,2.74830769 8.3496,2.83138462 8.3496,2.83138462 C8.3496,2.83153846 8.34944,2.83169231 8.34928,2.83184615 C8.34944,2.83184615 8.3496,2.832 8.34976,2.83230769 C8.59056,3.16307692 8.73216,3.56553846 8.73216,3.99969231 C8.73216,4.42215385 8.59856,4.81461538 8.36992,5.14 C8.36336,5.14953846 8.35632,5.15815385 8.3496,5.16707692 C8.62736,5.39384615 8.98624,5.53153846 9.37824,5.53153846 L10.18496,5.53153846 C10.3968,5.06184615 10.51536,4.54430769 10.51536,3.99969231 C10.51536,3.45523077 10.39744,2.93769231 10.1856,2.46815385 C10.14656,2.38184615 10.10416,2.29723077 10.05888,2.21415385 C10.02096,2.14476923 9.98176,2.076 9.93952,2.00923077 C9.93632,2.00415385 9.93376,2 9.93104,1.99553846 C9.92336,1.98353846 9.9152,1.972 9.90752,1.96015385 C9.4608,1.27353846 8.79568,0.732307692 8.00544,0.425846154 C7.90816,0.388153846 7.80928,0.353384615 7.70848,0.322769231 C7.70304,0.321076923 7.6976,0.319538462 7.692,0.317846154 C7.6752,0.312923077 7.65808,0.308769231 7.64112,0.304153846 C7.59792,0.291692308 7.55456,0.279230769 7.51056,0.268461538 C7.50992,0.268307692 7.5096,0.268307692 7.50912,0.268153846 C7.18912,0.188923077 6.85392,0.146923077 6.50832,0.146923077 L4.08672,0.146923077 C1.8736,0.146923077 0.07968,1.87184615 0.07968,3.99984615 C0.07968,6.128 1.8736,7.85307692 4.08672,7.85307692 L4.08672,7.85307692 Z" id="Shape"></path>
                </g>
            </g>
        </g>
    </g>
</svg>