<?xml version="1.0" encoding="UTF-8" standalone="no"?>
<svg width="20px" height="18px" viewBox="0 0 20 18" version="1.1" xmlns="http://www.w3.org/2000/svg" xmlns:xlink="http://www.w3.org/1999/xlink" xmlns:sketch="http://www.bohemiancoding.com/sketch/ns">
    <!-- Generator: Sketch 3.3.3 (12072) - http://www.bohemiancoding.com/sketch -->
    <title>mailbox</title>
    <desc>Created with Sketch.</desc>
    <defs></defs>
    <g id="little-big-details" stroke="none" stroke-width="1" fill="none" fill-rule="evenodd" sketch:type="MSPage">
        <g id="mailbox" sketch:type="MSLayerGroup" fill="#000000">
            <path d="M17.4887912,14.05755 L17.72,14.05665 L17.72,7.4286 C17.72,5.17185 15.9164835,3.3255 13.7120879,3.3255 L9.41120879,3.3255 L6.36791209,3.325725 L4.0778022,3.3255 C1.87340659,3.3255 0.0698901099,5.17185 0.0698901099,7.4286 L0.0698901099,14.05665 L6.71802198,14.05665 L6.71824176,17.2917 L10.010989,17.2917 L10.010989,14.05665 L13.12,14.0562 L15.2593407,16.700175 C15.8142857,17.385975 17.2338462,17.94375 18.4237363,17.94375 C19.6652747,17.94375 20.181978,17.38575 19.627033,16.700175 L17.4887912,14.05755 Z M12.1191209,12.78765 L12.1191209,7.11315 C12.1191209,5.894775 13.0872527,4.903875 14.2771429,4.903875 L14.3285714,4.903875 C15.5184615,4.903875 16.4865934,5.895 16.4865934,7.11315 L16.4865934,12.78765 L12.1191209,12.78765 Z" id="Shape" sketch:type="MSShapeGroup"></path>
            <path d="M6.98373626,7.003575 C6.48,7.3134 6.14307692,7.878375 6.14307692,8.523675 C6.14307692,9.502425 6.91802198,10.296 7.87428571,10.296 C8.83054945,10.296 9.60549451,9.50265 9.60549451,8.523675 C9.60549451,7.891425 9.2821978,7.336575 8.7956044,7.022925 L8.79494505,4.971375 L8.79494505,3.11805 L8.79494505,0.05625 L4.74967033,0.05625 L4.74967033,1.909575 L6.9843956,1.909575 L6.98373626,7.003575 L6.98373626,7.003575 Z" id="Shape" sketch:type="MSShapeGroup"></path>
        </g>
    </g>
</svg>