<?xml version="1.0" encoding="UTF-8" standalone="no"?>
<svg width="17px" height="15px" viewBox="0 0 17 15" version="1.1" xmlns="http://www.w3.org/2000/svg" xmlns:xlink="http://www.w3.org/1999/xlink" xmlns:sketch="http://www.bohemiancoding.com/sketch/ns">
    <!-- Generator: Sketch 3.3.3 (12072) - http://www.bohemiancoding.com/sketch -->
    <title>newspaper</title>
    <desc>Created with Sketch.</desc>
    <defs></defs>
    <g id="little-big-details" stroke="none" stroke-width="1" fill="none" fill-rule="evenodd" sketch:type="MSPage">
        <g id="newspaper" sketch:type="MSLayerGroup" fill="#000000">
            <path d="M4.24057702,0.055622449 L4.24057702,6.53782857 L0.0619720118,6.53782857 L0.0500519781,12.6201337 C0.0500519781,12.6201337 1.68847348,14.9524041 3.35733902,14.9524041 L13.8195855,14.9606418 C15.9574145,14.9606426 16.9887496,11.9142574 16.9887489,10.5324051 L16.9887489,0.055622449 L4.24057702,0.055622449 Z M13.4743048,13.6655541 L3.72287561,13.6655542 C5.35953978,13.0996095 5.37079083,9.88533163 5.35953978,9.73268674 L5.35953977,1.35176633 L15.869847,1.35176633 L15.869847,10.7326867 C15.869847,10.9220143 15.4813043,13.6655542 13.4743048,13.6655541 Z" id="Shape" sketch:type="MSShapeGroup"></path>
            <rect id="Rectangle-path" sketch:type="MSShapeGroup" x="6.69721631" y="3.49573571" width="7.92749137" height="1.29536939"></rect>
            <rect id="Rectangle-path" sketch:type="MSShapeGroup" x="6.69721631" y="6.6" width="7.92749137" height="1.29536939"></rect>
            <rect id="Rectangle-path" sketch:type="MSShapeGroup" x="6.69721631" y="9.90218571" width="7.92749137" height="1.29536939"></rect>
        </g>
    </g>
</svg>